Pyaar Ka Punchnama(2011) Hindi 1CD DVDSCR-=MTR=-
 
http://mixxpoint.com/wp-content/uploads/2011/04/Pyaar-Ka-Punchnama.jpg

Check out MY latest Uploads:
 
http://thepiratebay.org/user/HDvideos/0/7

Stay updated with us....

Seed after downloading....

EnjoY with HDvideos..

Torrent From Mastitorrents

Team Mastitorrents

Say thanks if u like my posts

Give ur valuable feedbacks

Quality Uploads from HDvideos

Format : AVI
Format/Info : Audio Video Interleave
File size : 657 MiB
Duration : 2h 20mn
Overall bit rate : 653 Kbps

Video
Format : MPEG-4 Visual
Format profile : Simple****************L3
Format settings, BVOP : No
Format settings, QPel : No
Format settings, GMC : No warppoints
Format settings, Matrix : Default
Codec ID : XVID
Codec ID/Hint : XviD
Duration : 2h 20mn
Bit rate : 519 Kbps
Width : 608 pixels
Height : 272 pixels
Display aspect ratio : 2.25
Frame rate : 25.000 fps
Resolution : 24 bits
Colorimetry : 4:2:0
Scan type : Progressive
Bits/(Pixel*Frame) : 0.125
Stream size : 522 MiB (79%)
Writing library : ZJMedia MPEG Encoder

Audio
Format : MPEG Audio
Format version : Version 1
Format profile : Layer 3
Codec ID : 55
Codec ID/Hint : MP3
Duration : 2h 20mn
Bit rate mode : Constant
Bit rate : 128 Kbps
Channel(s) : 2 channels
Sampling rate : 44.1 KHz
Resolution : 16 bits
Stream size : 129 MiB (20%)
Alignment : Split accross interleaves
Interleave, duration : 1000 ms (25.00 video frames)
Language : Hindi

INFO::

Movie Information:

Director:Luv Ranjan
Writers:Luv Ranjan (story), Luv Ranjan
Stars:Raayo Bakhirta, Nushrat Bharucha and Sonalli Sehgal

IMDB LINK:http://www.imdb.com/title/tt1926313/
